<?xml version="1.0" encoding="utf-8"?>
<!-- Generator: Adobe Illustrator 28.0.0, SVG Export Plug-In . SVG Version: 6.00 Build 0)  -->
<svg version="1.1" id="Ebene_1" xmlns="http://www.w3.org/2000/svg" xmlns:xlink="http://www.w3.org/1999/xlink" x="0px" y="0px"
	 viewBox="0 0 596 156" style="enable-background:new 0 0 596 156;" xml:space="preserve">
<style type="text/css">
	.st0{fill:#392759;}
	.st1{fill:#FF843D;}
</style>
<g>
	<path class="st0" d="M60.32,81.6l-41.47,41.47l-18.87-18.87l22.78-22.6L-0.02,58.82l18.87-18.87L60.32,81.6z M124.58,81.6
		L83.1,123.08l-18.87-18.87l22.78-22.6L64.24,58.82L83.1,39.95L124.58,81.6z"/>
	<path class="st1" d="M154.73-0.09h29.72v37.2h31.15v29.55h-31.15V90.5c0,14.24,11.57,25.28,26.7,25.28c1.96,0,2.49,0,4.45,0v29.55
		c-1.96,0-2.49,0-4.45,0c-30.26,0-56.42-23.67-56.42-54.82V66.65h-14.77V37.11h14.77V-0.09z"/>
	<path class="st1" d="M338.24,88.99v66.66h-29.72v-17.27c-7.83,4.45-16.73,6.94-26.7,6.94c-31.15,0-56.66-25.1-56.25-56.25
		c0.49-36.77,29.06-56.83,56.25-56.42C307.63,33.04,338.72,52.09,338.24,88.99z M255.3,89.08c0,14.77,11.75,26.52,26.52,26.52
		s26.7-11.75,26.7-26.52s-11.93-26.7-26.7-26.7S255.3,74.31,255.3,89.08z"/>
	<path class="st1" d="M484.91,128.95l-20.65,20.65l-18.69-18.69c-9.97,8.9-23.32,14.42-37.73,14.42
		c-31.15,0-56.25-25.28-56.25-56.42c0-31.15,25.1-56.25,56.25-56.25c9.97,0,18.87,2.49,26.7,6.94V-0.09h29.72v108.4L484.91,128.95z
		 M381.31,89.08c0,14.77,11.75,26.52,26.52,26.52s26.7-11.75,26.7-26.52s-11.93-26.7-26.7-26.7S381.31,74.31,381.31,89.08z"/>
	<path class="st1" d="M596.69,89.08c0,31.15-25.27,56.25-56.42,56.25c-31.15,0-56.25-25.1-56.25-56.25
		c0-31.15,25.1-56.42,56.25-56.42C571.41,32.66,596.69,57.93,596.69,89.08z M513.74,89.08c0,14.77,11.75,26.52,26.52,26.52
		s26.7-11.75,26.7-26.52s-11.93-26.7-26.7-26.7S513.74,74.31,513.74,89.08z"/>
</g>
<path d="M199.63,78.04"/>
</svg>
